<?xml version="1.0" standalone="no"?>
<!DOCTYPE svg PUBLIC "-//W3C//DTD SVG 20010904//EN"
 "http://www.w3.org/TR/2001/REC-SVG-20010904/DTD/svg10.dtd">
<svg version="1.0" xmlns="http://www.w3.org/2000/svg"
 width="700.000000pt" height="700.000000pt" viewBox="0 0 700.000000 700.000000"
 preserveAspectRatio="xMidYMid meet">
<metadata>
Created by potrace 1.11, written by Peter Selinger 2001-2013
</metadata>
<g transform="translate(0.000000,700.000000) scale(0.100000,-0.100000)"
fill="#000000" stroke="none">
<path d="M425 6071 c-19 -14 -60 -46 -91 -71 l-57 -45 -131 -2 c-72 0 -134 -1
-138 -2 -5 -1 -8 -212 -8 -471 l0 -470 3490 0 c1920 0 3490 2 3490 4 0 7 -34
142 -90 361 -29 110 -53 207 -55 215 -2 8 -22 87 -46 175 -23 88 -42 166 -42
173 0 6 -7 12 -16 13 -9 1 -1368 2 -3020 3 l-3004 1 -8 25 c-4 14 -13 46 -20
72 l-13 47 -103 -1 c-95 0 -106 -2 -138 -27z"/>
<path d="M1533 4882 c-882 -1 -1233 -5 -1233 -13 0 -14 92 -372 97 -379 3 -3
302 -5 666 -6 702 -1 702 -1 797 -49 108 -55 172 -149 219 -320 84 -309 174
-611 192 -646 42 -84 119 -148 219 -185 40 -14 143 -16 991 -17 l946 -1 23
-70 c30 -97 87 -250 116 -314 13 -29 24 -55 24 -58 0 -3 6 -20 14 -37 7 -18
51 -117 96 -222 46 -104 99 -224 118 -265 73 -159 182 -420 206 -496 33 -103
50 -206 55 -332 2 -32 160 -62 266 -50 89 9 163 18 195 23 14 2 99 14 190 25
91 12 179 23 195 25 17 3 51 7 76 10 25 3 54 7 65 9 11 2 51 7 89 11 38 3 72
8 75 10 3 1 34 6 70 9 36 4 91 10 123 15 82 11 120 6 169 -20 46 -26 94 -94
101 -144 13 -87 47 -258 51 -263 8 -7 67 53 100 102 38 57 100 229 111 306 4
24 8 47 10 50 2 3 6 37 10 75 4 39 9 79 12 90 2 11 6 112 8 225 4 267 -8 351
-78 535 -52 138 -121 252 -282 465 -227 302 -321 474 -366 667 -6 27 -13 57
-16 68 -13 54 -11 224 3 284 49 211 227 364 502 431 88 22 139 29 200 30 l42
0 0 210 0 210 -192 0 c-106 0 -1059 1 -2118 3 -1059 1 -2480 1 -3157 -1z
m2594 -552 c24 -85 52 -184 62 -220 59 -200 131 -466 131 -484 0 -40 -35 -82
-76 -92 -22 -5 -390 -9 -854 -9 -868 1 -845 0 -880 49 -12 17 -57 153 -75 230
-2 10 -12 44 -21 75 -48 163 -51 245 -14 344 53 140 188 244 335 259 17 2 327
3 689 3 l659 0 44 -155z"/>
<path d="M3366 4391 c-2 -3 -7 -37 -10 -74 -17 -192 -85 -343 -240 -532 l-25
-30 74 -57 74 -56 198 194 198 194 233 0 c218 0 233 1 228 18 -3 9 -26 92 -52
185 l-47 167 -314 -1 c-172 -1 -315 -5 -317 -8z"/>
<path d="M6415 1428 c-27 -4 -73 -10 -101 -13 -28 -3 -59 -7 -70 -9 -10 -2
-48 -7 -84 -11 -36 -4 -76 -9 -90 -11 -37 -5 -408 -53 -455 -59 -51 -7 -92
-12 -180 -25 -101 -14 -220 -12 -294 5 -35 9 -65 14 -66 13 -2 -2 -6 -32 -10
-68 -4 -36 -8 -67 -10 -70 -2 -3 -6 -29 -10 -59 -4 -30 -8 -63 -11 -74 -6 -33
23 -74 63 -90 88 -34 179 -38 363 -13 63 9 135 18 160 21 68 8 132 16 160 20
14 2 63 9 110 15 47 6 103 13 125 16 62 8 96 13 145 19 25 3 55 7 67 9 12 3
46 7 75 10 29 4 64 8 78 10 14 3 45 7 70 10 163 18 160 18 160 37 0 10 -9 64
-20 121 -10 57 -21 114 -24 128 -13 72 -41 85 -151 68z"/>
</g>
</svg>
